# xmcd CD database file
#
# Track frame offsets:
#	150
#	13548
#	27605
#	39763
#	55718
#	75193
#	87785
#	107235
#	123165
#	136548
#	149570
#	166333
#	179553
#	200645
#	216610
#	233255
#	248308
#	264338
#	278905
#
# Disc length: 3978 seconds
#
# Revision: 0
# Processed by: cddbd v1.5.2PL0 Copyright (c) Steve Scherf et al.
# Submitted via: ACXtractor (MTCDDB.DLL V2003.07.15)
#
DISCID=f50f8813
DTITLE=Reg Poole - When the Big Mobs Came to Bourke
DYEAR=1998
DGENRE=Country
TTITLE0=Those Moleskin Mates Of Mine
TTITLE1=Frenchy Duval
TTITLE2=The Night O'Leary Died
TTITLE3=Brewery Flat
TTITLE4=Where the Brumbies Come to Water
TTITLE5=Out At The Back Of Bourke
TTITLE6=Salt
TTITLE7=Mates
TTITLE8=Women Of The West
TTITLE9=Old Bluey's Hat
TTITLE10=From The Gulf
TTITLE11=An Awfull Lot's Happened Since Then
TTITLE12=Buckles And Sashes
TTITLE13=From The Lanterns
TTITLE14=Going Home At Last
TTITLE15=Lord Don't You Miss Them
TTITLE16=Different Fires
TTITLE17=To Say Goodbye
TTITLE18=When The Big Mobs Came To Bourke
EXTD=ID3G:   2 YEAR: 1998
EXTT0=
EXTT1=
EXTT2=
EXTT3=
EXTT4=
EXTT5=
EXTT6=
EXTT7=
EXTT8=
EXTT9=
EXTT10=
EXTT11=
EXTT12=
EXTT13=
EXTT14=
EXTT15=
EXTT16=
EXTT17=
EXTT18=
PLAYORDER=
